<?xml version="1.0" standalone="no"?>
<!DOCTYPE svg PUBLIC "-//W3C//DTD SVG 20010904//EN"
 "http://www.w3.org/TR/2001/REC-SVG-20010904/DTD/svg10.dtd">
<svg version="1.0" xmlns="http://www.w3.org/2000/svg"
 width="650.000000pt" height="650.000000pt" viewBox="0 0 650.000000 650.000000"
 preserveAspectRatio="xMidYMid meet">
<metadata>
Created by potrace 1.11, written by Peter Selinger 2001-2013
</metadata>
<g transform="translate(0.000000,650.000000) scale(0.100000,-0.100000)"
fill="#000000" stroke="none">
<path d="M0 3250 l0 -3250 3250 0 3250 0 0 3250 0 3250 -3250 0 -3250 0 0
-3250z m4238 2013 c543 543 990 987 995 987 4 0 7 -1113 7 -2472 l0 -2473
-183 -211 c-533 -617 -722 -837 -725 -845 -2 -5 -8 -9 -13 -9 -5 0 -9 776 -9
1953 l-1 1952 -24 -45 c-15 -30 -192 -213 -524 -545 -276 -275 -505 -501 -510
-503 -16 -5 -1022 1012 -1041 1054 -18 38 -18 -12 -19 -1907 -1 -1070 -4
-1948 -7 -1952 -6 -5 -76 75 -682 778 l-242 280 0 2480 0 2480 995 -995 995
-995 988 988z m-3632 15 l544 -543 0 -612 c0 -337 -3 -613 -7 -613 -17 0 -132
131 -143 164 -6 21 -14 35 -16 33 -2 -2 -4 -463 -4 -1025 0 -578 -4 -1023 -9
-1026 -4 -3 -60 54 -122 126 -63 73 -199 232 -303 353 -105 121 -259 300 -343
397 l-153 177 0 1556 c0 855 3 1555 6 1555 4 0 251 -244 550 -542z m5844
-1013 l0 -1555 -123 -142 c-152 -177 -397 -460 -621 -720 -93 -109 -173 -198
-178 -198 -4 0 -8 465 -9 1033 -1 1019 -1 1031 -20 991 -10 -22 -47 -69 -81
-104 l-63 -63 -3 614 -2 614 542 542 c299 299 546 543 550 543 5 0 8 -700 8
-1555z m-3207 -1622 c4 -4 221 206 482 467 261 261 475 470 475 465 0 -6 0
-283 0 -616 l0 -607 -473 -471 c-259 -259 -476 -471 -480 -471 -5 0 -222 213
-483 474 l-474 474 0 605 c0 332 3 607 7 611 4 4 217 -202 473 -458 256 -256
469 -469 473 -473z"/>
</g>
</svg>
